<?xml version="1.0" encoding="utf-8"?>
<!DOCTYPE svg PUBLIC "-//W3C//DTD SVG 1.0//EN" "http://www.w3.org/TR/2001/REC-SVG-20010904/DTD/svg10.dtd">
<svg aria-labelledby="title desc" fill-rule="evenodd" height="3.4479166666666665in" preserveAspectRatio="none" stroke-linecap="round" viewBox="0 0 1626 1986" width="2.8229166666666665in" xmlns="http://www.w3.org/2000/svg" xmlns:xlink="http://www.w3.org/1999/xlink"><title>cartoons,emotions,frustrated,gestures,hair pulling,people,Screen Beans®</title><desc>Original keywords: cartoons,emotions,frustrated,gestures,hair pulling,people,Screen Beans®. This clipart was ripped from the Microsoft website, then uploaded to https://archive.org/details/MS_Clipart_Collection. (The original WMF file can be found within that item, under the folder MC900078820). From there, it was then converted by Trumad to svg using https://github.com/hidekatsu-izuno/wmf2svg in a bulk operation. All the converted files can be found at https://archive.org/details/MS_Clipart_Collection_SVG</desc>
<style type="text/css">
.brush0 { fill: rgb(255,255,255); }
.pen0 { stroke: rgb(0,0,0); stroke-width: 1; stroke-linejoin: round; }
.brush1 { fill: rgb(0,0,0); }
.pen1 { stroke: none; }
.brush2 { fill: none; }
</style>
<g>
<polygon class="pen1 brush1" points="966,638 995,567 990,511 981,464 938,431 877,426 829,431 758,473 725,539 711,619 725,708 754,741 806,760 858,755 914,732 952,699 1014,751 1042,751 1042,722 1028,699"/>
<polygon class="pen1 brush1" points="978,505 1047,495 1047,468 967,488 957,478 1009,439 990,429 943,459 924,449 997,402 983,378 891,449 829,468 813,444 794,395 772,415 796,463 782,473 758,429 744,454 761,498 877,483"/>
<polygon class="pen1 brush1" points="837,911 823,883 832,855 865,827 949,813 1056,822 1192,804 1276,762 1294,739 1280,678 1243,544 1187,465 1150,441 1145,418 1164,409 1178,386 1150,353 1117,358 1098,334 1122,302 1164,288 1215,302 1234,348 1229,409 1196,432 1234,469 1280,525 1308,627 1341,743 1341,790 1327,799 1243,836 1145,864 977,887 879,920"/>
<polygon class="pen1 brush1" points="1132,527 1150,570 1157,581 1165,580 1169,568 1123,495 1122,510"/>
<polygon class="pen1 brush1" points="1168,355 1075,383 1084,420 1215,355 1084,439 1098,462 1196,392 1271,355 1388,322 1509,322 1621,318 1626,285 1505,294 1388,304 1271,332 1252,336 1388,271 1523,182 1528,150 1425,220 1299,294 1243,313 1346,234 1407,145 1435,57 1407,10 1393,113 1341,206 1266,266"/>
<polygon class="pen1 brush1" points="1084,537 1074,582 1068,592 1077,597 1090,590 1099,505 1087,517"/>
<polygon class="pen1 brush1" points="1048,323 1038,278 1031,266 1045,261 1058,268 1055,353 1045,341"/>
<polygon class="pen1 brush1" points="1011,330 979,295 971,288 974,280 989,283 1037,353 1024,348"/>
<polygon class="pen1 brush1" points="437,567 564,646 681,736 766,831 794,875 787,917 759,938 705,938 667,859 606,771 521,695 434,616 378,581 373,555 401,498 469,423 575,372 662,351 662,305 719,268 768,268 775,289 754,310 719,310 705,340 702,389 676,389 646,386 575,409 505,451 455,507"/>
<polygon class="pen1 brush1" points="725,288 779,340 767,359 711,312 704,316 751,375 737,396 687,333 647,309 541,260 485,246 482,218 574,241 654,281 680,302 612,232 497,162 433,129 440,108 489,129 581,183 652,232 701,284 626,176 574,84 555,0 581,0 598,73 659,178 701,246"/>
<polygon class="pen1 brush1" points="834,322 862,286 867,270 877,275 880,288 813,345 818,329"/>
<polygon class="pen1 brush1" points="805,290 811,248 808,233 822,231 831,243 796,320 790,305"/>
<polygon class="pen1 brush1" points="648,427 607,457 599,464 602,472 614,475 679,409 664,414"/>
<polygon class="pen1 brush1" points="674,462 629,501 622,508 629,513 644,513 703,438 688,445"/>
<polygon class="pen1 brush1" points="584,1034 617,946 678,876 739,829 791,815 843,815 871,838 885,876 880,941 838,1002 810,1034 781,1081 777,1137 796,1202 805,1296 786,1356 734,1389 673,1389 617,1370 584,1314 560,1230 560,1128 569,1067 593,1002 612,955"/>
<polygon class="pen1 brush1" points="697,1319 725,1310 775,1333 848,1438 902,1528 907,1577 876,1637 810,1691 706,1749 633,1795 614,1825 638,1837 713,1881 758,1951 749,1967 713,1988 671,1988 666,1928 635,1893 581,1856 541,1849 543,1816 579,1788 669,1733 772,1677 834,1612 853,1577 853,1545 827,1484 732,1403 673,1363"/>
<polygon class="pen1 brush1" points="506,1233 599,1210 692,1238 692,1280 655,1308 580,1308 459,1304 389,1304 375,1323 361,1426 301,1519 198,1557 170,1571 133,1562 82,1482 3,1435 -2,1416 54,1365 96,1393 138,1482 156,1538 245,1501 301,1440 324,1365 347,1252 394,1243"/>
</g>
</svg>