<?xml version="1.0" encoding="utf-8"?>
<!DOCTYPE svg PUBLIC "-//W3C//DTD SVG 1.0//EN" "http://www.w3.org/TR/2001/REC-SVG-20010904/DTD/svg10.dtd">
<svg aria-labelledby="title desc" fill-rule="evenodd" height="2.2152777777777777in" preserveAspectRatio="none" stroke-linecap="round" viewBox="0 0 1426 1276" width="2.4756944444444446in" xmlns="http://www.w3.org/2000/svg" xmlns:xlink="http://www.w3.org/1999/xlink"><title>carefree,cartoons,emotions,flowers,frolicking,happy,nature,people,Screen Beans®,seasons,skipping,spring</title><desc>Original keywords: carefree,cartoons,emotions,flowers,frolicking,happy,nature,people,Screen Beans®,seasons,skipping,spring. This clipart was ripped from the Microsoft website, then uploaded to https://archive.org/details/MS_Clipart_Collection. (The original WMF file can be found within that item, under the folder MC900078833). From there, it was then converted by Trumad to svg using https://github.com/hidekatsu-izuno/wmf2svg in a bulk operation. All the converted files can be found at https://archive.org/details/MS_Clipart_Collection_SVG</desc>
<style type="text/css">
.brush0 { fill: rgb(255,255,255); }
.pen0 { stroke: rgb(0,0,0); stroke-width: 1; stroke-linejoin: round; }
.pen1 { stroke: none; }
.brush1 { fill: rgb(102,51,0); }
.brush2 { fill: rgb(153,102,0); }
.brush3 { fill: rgb(204,153,0); }
.brush4 { fill: rgb(0,0,0); }
.brush5 { fill: rgb(0,153,0); }
.brush6 { fill: none; }
</style>
<g>
<polygon class="pen1 brush1" points="999,561 1007,541 1023,522 1059,506 1096,494 1129,489 1162,495 1186,506 1197,520 1179,536 1157,551 1118,569 1082,578 1044,577 1009,575 997,565"/>
<polygon class="pen1 brush0" points="1001,569 1038,579 1081,575 1123,570 1162,552 1185,533 1189,521 1181,507 1190,500 1219,522 1229,547 1229,585 1227,589 1219,618 1200,639 1197,640 1161,656 1128,662 1125,661 1095,664 1067,657 1064,656 1042,640 1017,623 1006,603 1000,578"/>
<polygon class="pen1 brush2" points="1050,596 1077,597 1113,594 1145,584 1173,572 1194,560 1206,542 1211,530 1209,513 1226,525 1232,541 1236,568 1231,602 1223,627 1214,640 1195,651 1175,658 1152,666 1131,669 1103,671 1081,667 1065,665 1048,657 1032,649 1018,637 1004,623 995,606 989,575 990,553 998,537 1010,523 1027,512 1048,502 1075,493 1096,489 1121,484 1148,484 1167,489 1184,493 1191,497 1192,503 1186,511 1158,502 1132,499 1110,500 1087,505 1062,511 1042,518 1023,527 1013,537 1006,548 1005,558 1009,565 1027,570 1030,570 1053,570 1090,567 1119,561 1143,556 1161,546 1175,537 1183,527 1190,509 1198,504 1205,511 1196,532 1175,551 1146,567 1116,574 1085,582 1053,585 1027,584 1023,584 1009,580 1010,591 1019,609 1032,628 1053,639 1070,651 1093,654 1116,655 1138,653 1162,647 1183,638 1202,628 1211,616 1219,600 1221,581 1222,562 1217,547 1210,565 1198,576 1181,588 1157,597 1136,605 1115,609 1089,614 1063,610 1037,607 1019,594"/>
<polygon class="pen1 brush3" points="1112,419 1135,428 1138,430 1161,450 1175,473 1183,497 1182,503 1149,490 1138,488 1138,469 1132,454 1122,441 1102,432 1086,428 1068,430 1049,438 1035,450 1027,476 1023,509 1025,540 1031,560 1037,577 1052,599 1025,597 1018,592 1010,572 1003,545 1003,516 1004,491 1012,464 1023,446 1042,431 1073,421 1096,417"/>
<polygon class="pen1 brush0" points="1044,514 1047,500 1057,493 1067,492 1076,499 1081,510 1095,508 1109,512 1112,512 1116,524 1112,535 1103,545 1098,547 1101,557 1097,568 1090,577 1079,584 1076,586 1063,585 1053,577 1048,574 1036,573 1026,561 1024,548 1027,536 1032,533 1026,524 1032,517 1037,514"/>
<polygon class="pen1 brush0" points="1059,533 1056,523 1052,513 1056,504 1061,498 1066,500 1071,503 1072,511 1070,519 1070,527 1075,525 1079,518 1086,514 1089,514 1096,513 1101,517 1105,526 1102,535 1094,540 1084,540 1076,538 1077,545 1086,547 1093,552 1091,563 1084,572 1074,574 1066,570 1061,562 1065,554 1068,546 1063,544 1061,553 1056,560 1045,561 1038,555 1038,548 1040,542 1044,537 1042,530 1042,523 1047,523 1052,526"/>
<polygon class="pen1 brush0" points="1061,534 1069,529 1075,531 1077,541 1070,545 1063,541"/>
<polygon class="pen1 brush0" points="1103,498 1107,484 1118,475 1129,475 1140,482 1146,495 1162,492 1178,496 1181,497 1186,510 1180,522 1171,532 1165,535 1168,545 1164,558 1156,568 1143,576 1140,578 1126,576 1113,568 1108,564 1094,563 1082,550 1081,536 1084,523 1089,520 1083,510 1089,502 1096,499"/>
<polygon class="pen1 brush0" points="1121,520 1118,509 1112,499 1117,489 1123,483 1129,485 1135,489 1136,497 1134,506 1134,515 1140,512 1145,505 1152,500 1156,500 1164,499 1170,504 1174,513 1171,523 1162,528 1151,528 1141,526 1142,533 1152,535 1160,541 1158,553 1150,562 1138,565 1129,560 1123,552 1127,543 1131,535 1126,532 1123,542 1117,550 1105,551 1096,545 1096,537 1099,530 1104,525 1101,517 1101,510 1107,509 1113,513"/>
<polygon class="pen1 brush0" points="1123,521 1131,516 1137,518 1140,528 1132,532 1125,528"/>
<polygon class="pen1 brush0" points="274,330 264,327 254,312 258,297 271,295 285,304 293,327 280,333"/>
<polygon class="pen1 brush0" points="225,247 229,231 240,226 252,237 252,250 241,256 229,253 229,243"/>
<polygon class="pen1 brush0" points="339,212 343,188 357,181 368,191 365,207 349,225 339,222"/>
<polygon class="pen1 brush0" points="453,187 456,172 471,168 483,174 480,184 463,195 453,193"/>
<polygon class="pen1 brush0" points="133,310 138,292 151,286 166,299 166,313 153,320 138,317 137,305"/>
<polygon class="pen1 brush0" points="106,238 96,236 86,224 89,213 103,212 118,218 126,236 113,241"/>
<polygon class="pen1 brush0" points="240,119 238,111 244,98 257,94 263,102 264,115 250,131 240,125"/>
<polygon class="pen1 brush0" points="390,25 388,17 394,5 407,0 413,8 414,21 400,36 390,31"/>
<polygon class="pen1 brush0" points="327,70 331,54 342,50 355,60 355,73 344,79 331,76 330,66"/>
<polygon class="pen1 brush0" points="126,131 111,126 109,111 116,101 126,105 136,123 132,132"/>
<polygon class="pen1 brush0" points="62,126 66,110 77,106 90,116 90,129 79,135 66,132 65,122"/>
<polygon class="pen1 brush4" points="671,398 651,379 637,366 621,357 603,349 590,346 573,344 562,346 552,351 545,357 540,367 538,379 536,395 540,415 544,429 551,443 558,457 569,469 582,481 599,492 618,503 637,508 653,507 668,505 680,499 688,491 694,480 695,466 693,453 692,440 687,429 684,418 680,411 704,400 729,393 745,386 747,378 745,369 738,361 728,362 718,364 706,373 690,383 679,391"/>
<polygon class="pen1 brush4" points="677,514 694,512 712,510 731,513 747,520 767,533 784,549 796,567 808,585 817,609 823,632 828,657 830,684 828,706 826,731 823,754 817,778 810,796 801,814 791,827 779,832 766,838 750,840 737,838 726,836 716,828 707,818 702,807 696,791 694,777 698,757 704,737 711,718 716,704 720,688 720,678 718,668 714,656 707,643 695,629 682,617 673,605 663,588 657,572 654,554 654,539 657,530 665,522"/>
<polygon class="pen1 brush4" points="714,515 736,513 759,516 786,526 815,541 843,556 869,570 886,577 898,579 913,575 921,568 934,553 949,530 968,503 984,476 999,458 1012,442 1021,420 1024,409 1033,398 1044,395 1054,395 1061,399 1059,409 1047,411 1038,422 1043,428 1056,422 1074,412 1088,415 1095,421 1099,429 1097,441 1090,448 1077,451 1055,459 1036,460 1020,464 999,490 983,523 970,545 957,566 942,585 926,601 912,609 896,613 882,611 869,605 850,598 829,589 804,578 779,570 753,565 732,558 714,550 707,533 704,535 704,523 710,515"/>
<polygon class="pen1 brush4" points="640,558 656,532 667,526 686,530 694,545 690,567 676,586 653,605 628,620 605,633 579,645 557,648 538,649 522,648 508,640 493,627 470,599 453,571 437,542 420,513 398,489 378,478 364,477 345,482 331,489 318,492 309,489 308,479 312,473 322,466 335,465 349,466 356,463 353,455 340,450 324,450 315,446 307,439 302,429 305,422 309,418 318,418 329,423 340,430 348,438 357,440 366,439 371,432 375,420 371,407 373,394 377,388 387,384 395,389 398,399 394,410 389,420 386,437 387,450 399,463 418,475 432,489 447,508 463,530 477,552 493,573 509,594 519,605 532,612 545,617 556,618 569,616 583,609 600,598 614,584 629,569"/>
<polygon class="pen1 brush4" points="694,836 702,789 719,759 739,761 751,773 758,793 754,823 750,840 743,872 733,900 723,924 709,947 692,974 676,991 664,999 645,1003 625,996 601,982 576,962 551,937 528,907 510,882 489,865 469,855 454,853 432,856 409,870 385,884 363,887 350,879 340,867 343,854 351,850 361,853 358,854 377,859 397,852 415,835 433,821 445,805 462,799 475,802 484,817 499,837 523,855 551,873 574,891 597,914 617,931 636,943 649,945 655,939 664,929 675,904 684,877 690,855"/>
<polygon class="pen1 brush4" points="815,797 780,829 748,841 734,828 732,811 739,791 760,770 774,759 798,738 823,721 847,709 871,700 902,689 925,686 939,687 956,695 968,713 978,738 985,769 989,804 989,843 988,874 994,900 1004,919 1015,930 1034,941 1060,945 1087,949 1107,960 1112,973 1113,989 1103,998 1093,996 1087,988 1091,989 1079,974 1058,966 1034,969 1011,969 992,974 975,969 967,958 969,941 969,916 962,887 950,855 943,827 939,795 934,769 926,748 917,738 909,739 896,742 872,755 848,770 831,784"/>
<polygon class="pen1 brush0" points="52,970 56,952 70,941 83,941 95,950 102,965 121,961 139,967 144,968 148,984 143,999 131,1012 125,1015 128,1028 123,1044 114,1055 98,1065 95,1068 78,1066 64,1055 58,1051 42,1050 28,1034 25,1017 29,1000 36,996 29,984 36,974 43,970"/>
<polygon class="pen1 brush0" points="73,998 69,984 63,971 68,959 75,951 82,954 90,958 91,969 88,980 88,990 94,987 100,978 109,972 113,972 122,971 130,977 134,989 130,1000 120,1007 107,1007 96,1005 97,1014 109,1016 118,1023 116,1038 106,1050 93,1053 82,1047 75,1037 80,1026 85,1016 78,1012 75,1024 68,1034 54,1035 45,1028 44,1018 48,1010 53,1004 50,994 49,985 57,984 64,988"/>
<polygon class="pen1 brush0" points="75,997 85,992 92,994 95,1005 87,1011 77,1006"/>
<polygon class="pen1 brush0" points="132,1131 143,1117 160,1112 174,1116 183,1128 185,1143 205,1146 221,1157 226,1159 224,1175 213,1185 197,1193 189,1194 188,1206 177,1218 163,1225 144,1229 140,1230 124,1223 113,1210 109,1204 93,1197 84,1179 89,1164 98,1151 106,1149 103,1136 114,1130 124,1129"/>
<polygon class="pen1 brush0" points="143,1161 145,1148 143,1135 153,1127 162,1122 169,1127 174,1133 172,1142 165,1151 161,1160 169,1159 179,1153 189,1151 193,1152 203,1154 208,1161 208,1173 200,1182 188,1184 174,1181 164,1175 162,1183 173,1189 180,1197 172,1209 158,1217 143,1215 135,1207 131,1196 141,1188 149,1181 143,1176 137,1185 126,1191 111,1188 104,1178 107,1170 114,1164 122,1160 122,1151 124,1143 133,1145 138,1151"/>
<polygon class="pen1 brush0" points="145,1163 157,1160 163,1165 162,1176 151,1178 143,1171"/>
<polygon class="pen1 brush0" points="265,1078 276,1063 292,1058 305,1061 314,1074 315,1090 334,1093 349,1104 353,1106 352,1123 342,1134 326,1142 319,1143 317,1155 307,1168 295,1175 277,1179 273,1181 258,1173 248,1159 244,1153 229,1147 221,1128 225,1111 234,1098 241,1096 239,1083 249,1076 258,1075"/>
<polygon class="pen1 brush0" points="275,1110 277,1096 275,1082 284,1073 293,1068 299,1073 304,1080 302,1090 295,1099 292,1109 299,1107 308,1101 318,1099 322,1100 331,1102 336,1110 336,1123 328,1132 317,1134 304,1130 294,1124 293,1133 303,1139 309,1148 302,1161 289,1168 275,1167 268,1158 264,1147 273,1138 280,1130 275,1125 269,1135 259,1142 245,1138 239,1128 241,1119 248,1113 255,1109 255,1099 258,1091 265,1092 270,1099"/>
<polygon class="pen1 brush0" points="277,1112 288,1109 294,1114 293,1125 283,1127 276,1120"/>
<polygon class="pen1 brush0" points="804,1135 819,1125 838,1126 849,1135 853,1150 848,1166 866,1176 877,1193 880,1197 872,1212 858,1218 840,1219 832,1217 826,1228 811,1236 796,1238 777,1234 772,1234 760,1221 755,1204 754,1196 741,1185 741,1164 751,1150 765,1141 773,1143 776,1129 788,1127 797,1129"/>
<polygon class="pen1 brush0" points="802,1168 808,1156 812,1143 824,1138 835,1137 839,1144 842,1152 836,1160 826,1166 819,1174 827,1176 838,1173 849,1175 852,1178 860,1184 862,1193 857,1204 847,1210 834,1208 823,1199 815,1189 811,1197 819,1207 821,1217 809,1226 794,1228 781,1221 776,1210 777,1198 789,1193 799,1189 796,1183 786,1190 773,1191 761,1182 759,1170 765,1163 773,1160 782,1159 786,1150 791,1144 799,1148 801,1156"/>
<polygon class="pen1 brush0" points="802,1171 814,1173 819,1180 813,1190 803,1188 798,1178"/>
<polygon class="pen1 brush0" points="1112,1168 1115,1149 1129,1136 1143,1132 1158,1138 1167,1152 1187,1144 1208,1145 1212,1145 1219,1160 1215,1176 1204,1190 1197,1196 1202,1208 1198,1224 1189,1237 1174,1250 1170,1253 1152,1255 1135,1248 1128,1244 1110,1247 1094,1235 1090,1219 1092,1202 1098,1197 1089,1186 1096,1175 1104,1169"/>
<polygon class="pen1 brush0" points="1138,1189 1133,1176 1124,1165 1129,1152 1135,1143 1144,1144 1152,1147 1154,1157 1152,1168 1154,1179 1160,1174 1166,1164 1174,1156 1179,1155 1189,1152 1197,1156 1203,1168 1201,1179 1190,1188 1176,1191 1164,1191 1166,1200 1179,1200 1190,1204 1189,1219 1180,1232 1166,1239 1154,1235 1145,1228 1149,1215 1153,1204 1146,1202 1144,1215 1138,1226 1122,1230 1111,1225 1109,1216 1112,1207 1118,1199 1113,1190 1111,1182 1120,1180 1128,1182"/>
<polygon class="pen1 brush0" points="1140,1190 1150,1181 1159,1182 1162,1193 1154,1201 1143,1199"/>
<polygon class="pen1 brush0" points="1334,929 1343,909 1359,903 1371,907 1379,924 1380,946 1398,949 1412,964 1416,967 1414,989 1405,1004 1391,1014 1384,1016 1382,1032 1373,1049 1361,1059 1345,1064 1341,1066 1327,1056 1317,1037 1314,1029 1300,1021 1293,996 1296,974 1304,956 1311,954 1309,936 1319,927 1327,926"/>
<polygon class="pen1 brush0" points="1344,971 1345,953 1344,935 1352,923 1361,916 1366,923 1371,931 1369,945 1363,956 1359,970 1366,968 1375,960 1384,956 1388,958 1396,961 1401,971 1401,988 1394,1000 1383,1003 1371,998 1362,990 1361,1001 1370,1010 1376,1022 1369,1038 1357,1048 1344,1047 1337,1035 1333,1020 1342,1008 1349,998 1344,991 1338,1005 1329,1013 1316,1008 1310,995 1312,983 1318,975 1325,970 1325,956 1327,946 1335,948 1339,956"/>
<polygon class="pen1 brush0" points="1345,973 1355,970 1361,976 1360,991 1350,995 1344,985"/>
<polygon class="pen1 brush5" points="699,1222 707,1186 708,1160 707,1131 701,1102 689,1074 678,1074 678,1093 687,1135 687,1167 683,1202 674,1222 673,1197 665,1169 654,1142 638,1119 621,1100 618,1110 631,1142 644,1176 643,1180 648,1211 649,1234 656,1242 660,1244 673,1240 675,1230 683,1239 697,1233"/>
<polygon class="pen1 brush5" points="581,1151 598,1183 609,1217 613,1242 612,1245 613,1263 606,1273 598,1275 588,1271 584,1257 588,1237 590,1214 586,1194 579,1173 575,1154"/>
<polygon class="pen1 brush5" points="498,1205 501,1170 511,1136 520,1112 530,1094 535,1097 528,1129 521,1171 517,1202 515,1222 508,1231 499,1227 496,1216"/>
<polygon class="pen1 brush5" points="461,1225 465,1181 470,1154 476,1125 484,1097 494,1072 503,1056 507,1060 498,1101 489,1145 486,1181 484,1212 484,1240 481,1249 475,1254 464,1251 462,1244 458,1231"/>
<polygon class="pen1 brush5" points="418,1240 410,1214 407,1192 405,1163 407,1132 412,1105 422,1080 428,1082 423,1113 422,1146 423,1171 426,1193 433,1213 441,1228 444,1238 443,1244 440,1246 435,1249 427,1244"/>
<polygon class="pen1 brush5" points="334,1053 346,1085 353,1114 354,1145 353,1174 347,1202 340,1222 331,1232 323,1229 318,1222 319,1211 326,1197 335,1176 339,1151 340,1127 339,1103 335,1084 331,1062"/>
<polygon class="pen1 brush5" points="301,1108 311,1132 314,1159 313,1185 310,1213 306,1238 302,1252 292,1252 288,1243 288,1230 292,1206 297,1173 299,1142 299,1117"/>
<polygon class="pen1 brush5" points="220,1056 229,1089 231,1125 226,1164 218,1192 221,1156 214,1129 201,1104 188,1092 185,1100 200,1133 206,1159 204,1184 197,1214 201,1226 212,1230 221,1218 229,1225 243,1222 250,1206 253,1182 250,1139 241,1093 228,1056"/>
<polygon class="pen1 brush5" points="92,1199 95,1163 105,1129 114,1105 124,1086 129,1089 122,1122 115,1164 111,1196 109,1215 102,1224 93,1221 90,1210"/>
<polygon class="pen1 brush5" points="55,1217 59,1173 64,1146 70,1117 78,1089 88,1064 97,1048 101,1052 92,1093 83,1137 80,1173 78,1204 78,1232 75,1241 69,1246 58,1243 56,1236 52,1223"/>
<polygon class="pen1 brush5" points="12,1232 4,1206 1,1184 -1,1155 1,1124 6,1097 16,1072 22,1074 17,1105 16,1138 17,1163 20,1185 27,1205 35,1220 38,1230 37,1236 34,1238 29,1241 21,1236"/>
<polygon class="pen1 brush5" points="1331,1215 1338,1171 1346,1140 1357,1105 1370,1074 1387,1043 1394,1046 1388,1068 1368,1116 1358,1153 1350,1195 1349,1222 1358,1192 1372,1161 1389,1132 1407,1110 1425,1092 1424,1104 1404,1138 1384,1175 1384,1179 1370,1216 1362,1242 1354,1249 1351,1251 1344,1243 1346,1231 1337,1238 1330,1229"/>
<polygon class="pen1 brush5" points="1071,1237 1075,1188 1080,1157 1086,1124 1094,1093 1104,1064 1113,1046 1118,1051 1108,1096 1099,1147 1096,1188 1094,1222 1094,1254 1091,1264 1085,1270 1074,1266 1072,1259 1069,1244"/>
<polygon class="pen1 brush5" points="944,1069 956,1102 963,1131 964,1162 963,1191 957,1220 950,1239 941,1249 933,1247 928,1239 929,1228 936,1214 945,1193 949,1168 950,1144 949,1120 945,1101 941,1079"/>
<polygon class="pen1 brush5" points="911,1124 921,1148 924,1175 923,1201 920,1229 916,1254 912,1268 902,1268 898,1259 898,1246 902,1222 907,1189 909,1158 909,1133"/>
<polygon class="pen1 brush5" points="851,1087 860,1120 862,1156 856,1195 849,1223 852,1187 845,1160 833,1135 820,1123 816,1131 832,1164 837,1190 835,1215 828,1245 833,1257 844,1261 852,1249 860,1256 874,1253 880,1237 883,1213 880,1170 872,1124 859,1087"/>
<polygon class="pen1 brush5" points="1030,1128 1047,1148 1058,1173 1065,1199 1070,1226 1074,1250 1074,1266 1064,1268 1058,1261 1054,1249 1051,1225 1045,1192 1038,1161 1031,1137"/>
<polygon class="pen1 brush5" points="1188,1122 1207,1145 1222,1173 1231,1206 1233,1231 1224,1201 1207,1182 1188,1165 1172,1160 1171,1167 1197,1189 1211,1209 1218,1229 1222,1255 1231,1263 1242,1263 1246,1251 1255,1254 1267,1248 1267,1232 1262,1212 1243,1178 1220,1145 1195,1119"/>
<polygon class="pen1 brush5" points="1102,1230 1106,1181 1111,1150 1117,1116 1125,1085 1135,1057 1144,1039 1149,1043 1139,1089 1130,1140 1127,1181 1125,1215 1125,1247 1122,1257 1116,1264 1105,1260 1103,1252 1100,1238"/>
<polygon class="pen1 brush5" points="738,1243 745,1207 747,1181 745,1152 740,1123 728,1095 717,1095 717,1114 726,1156 726,1188 722,1223 713,1243 712,1218 704,1190 693,1163 677,1140 661,1121 657,1131 671,1163 684,1197 682,1201 687,1232 688,1255 695,1263 699,1265 712,1261 714,1251 722,1260 736,1254"/>
<polygon class="pen1 brush5" points="1316,1220 1324,1167 1325,1129 1324,1085 1318,1044 1306,1002 1295,1002 1295,1029 1304,1092 1304,1138 1300,1189 1291,1220 1290,1183 1282,1141 1271,1101 1255,1068 1238,1040 1235,1055 1248,1101 1261,1153 1260,1157 1265,1204 1266,1238 1273,1249 1277,1252 1290,1246 1292,1231 1300,1244 1314,1236"/>
</g>
</svg>